<?xml version="1.0" encoding="utf-8"?>
<!-- Generator: Adobe Illustrator 22.1.0, SVG Export Plug-In . SVG Version: 6.00 Build 0)  -->
<svg version="1.1" id="Layer_1" xmlns="http://www.w3.org/2000/svg" xmlns:xlink="http://www.w3.org/1999/xlink" x="0px" y="0px"
	 viewBox="0 0 32 32" style="enable-background:new 0 0 32 32;" xml:space="preserve">
<g>
	<path d="M16,10.1c-3.2,0-5.9,2.6-5.9,5.9c0,3.2,2.6,5.9,5.9,5.9c3.2,0,5.9-2.6,5.9-5.9C21.9,12.8,19.2,10.1,16,10.1z M16,19.9
		c-2.1,0-3.9-1.7-3.9-3.9c0-2.1,1.7-3.9,3.9-3.9c2.1,0,3.9,1.7,3.9,3.9C19.9,18.1,18.1,19.9,16,19.9z"/>
	<path d="M25.9,10.3L16,4.6l-9.9,5.7v11.4l9.9,5.7l7.9-4.5v4.5h2v-5.7v0V10.3z M8.1,20.6v-9.1L16,6.9l7.9,4.6v9.1L16,25.1L8.1,20.6z
		"/>
</g>
</svg>
